<svg width="194" height="94" viewBox="0 0 194 94" fill="none" xmlns="http://www.w3.org/2000/svg">
<g clip-path="url(#clip0_1_353)">
<path d="M98.5956 45.5341L54.7022 5.55281C53.8134 4.74322 52.3724 4.74322 51.4836 5.55281L7.59019 45.5341C6.70138 46.3437 6.70138 47.6563 7.59019 48.4659L51.4836 88.4471C52.3724 89.2567 53.8134 89.2567 54.7022 88.4471L98.5956 48.4659C99.4844 47.6563 99.4844 46.3437 98.5956 45.5341Z" fill="url(#paint0_linear_1_353)"/>
<path d="M69.624 74.0381C64.1077 76.6499 65.346 76.5491 58.6022 77.0687C51.8578 77.5879 45.0726 76.5383 39.0135 74.0381C32.9543 71.5379 27.8633 67.6872 24.3164 62.9216C20.7695 58.156 18.9084 52.6657 18.9435 47.0717C18.9786 41.4778 20.9086 36.0037 24.5151 31.2687C28.1216 26.5336 33.2607 22.7267 39.3509 20.2786C45.4411 17.8305 52.2393 16.8389 58.9763 17.4161C65.7134 17.9932 67.4332 18.3965 72.7853 21.8249L69.624 31.9022C66.1605 29.6837 62.0146 28.31 57.6552 27.9366C53.2958 27.5631 48.8965 28.2047 44.9555 29.7889C41.0146 31.373 37.6891 33.8365 35.3554 36.9005C33.0216 39.9645 31.7728 43.5068 31.75 47.1267C31.7273 50.7464 32.9317 54.2991 35.2268 57.383C37.522 60.4669 40.8164 62.9584 44.7372 64.5764C48.658 66.194 53.0487 66.8732 57.4127 66.5371C61.7771 66.201 65.9397 64.8629 69.4308 62.6744L69.624 74.0381Z" fill="#D0D0D0"/>
<path d="M95.6884 19.1953C94.609 19.1953 93.7735 19.5661 93.1812 20.3075C92.5895 21.0434 92.2933 22.0713 92.2933 23.3914C92.2933 26.1382 93.425 27.5116 95.6884 27.5116C96.6376 27.5116 97.7877 27.2953 99.1383 26.8628V29.0535C98.0285 29.4748 96.7892 29.6855 95.4197 29.6855C93.4524 29.6855 91.9478 29.1434 90.9059 28.0593C89.8634 26.9695 89.3425 25.408 89.3425 23.3745C89.3425 22.0938 89.5982 20.9732 90.1102 20.0126C90.6222 19.0465 91.3561 18.3078 92.3118 17.7966C93.274 17.2799 94.3992 17.0215 95.6884 17.0215C97.0015 17.0215 98.3212 17.3108 99.6473 17.8893L98.722 20.0126C98.2165 19.7936 97.708 19.6026 97.196 19.4397C96.684 19.2768 96.1814 19.1953 95.6884 19.1953ZM110.359 20.0969V22.0264H106.973V29.5169H104.152V22.0264H100.757V20.0969H110.359ZM117.972 29.6855C116.757 29.6855 115.804 29.2839 115.114 28.4806H114.965C115.064 29.267 115.114 29.722 115.114 29.8455V33.6624H112.292V20.0969H114.587L114.984 21.3186H115.114C115.774 20.3862 116.751 19.92 118.046 19.92C119.267 19.92 120.223 20.3497 120.914 21.2091C121.604 22.0686 121.949 23.2622 121.949 24.7901C121.949 25.7955 121.786 26.669 121.459 27.4105C121.139 28.1519 120.679 28.7165 120.081 29.1041C119.483 29.4917 118.78 29.6855 117.972 29.6855ZM117.14 21.9759C116.443 21.9759 115.934 22.1725 115.613 22.5657C115.292 22.9532 115.126 23.5964 115.114 24.4952V24.7732C115.114 25.7843 115.277 26.5089 115.604 26.9471C115.937 27.3852 116.461 27.6043 117.176 27.6043C118.441 27.6043 119.073 26.655 119.073 24.7564C119.073 23.8295 118.915 23.1358 118.601 22.6752C118.293 22.209 117.806 21.9759 117.14 21.9759ZM126.529 24.7901C126.529 25.7225 126.695 26.4275 127.028 26.9049C127.367 27.3824 127.916 27.6211 128.675 27.6211C129.427 27.6211 129.967 27.3852 130.294 26.9134C130.627 26.4359 130.793 25.7282 130.793 24.7901C130.793 23.8576 130.627 23.1583 130.294 22.692C129.961 22.2258 129.415 21.9927 128.656 21.9927C127.904 21.9927 127.361 22.2258 127.028 22.692C126.695 23.1526 126.529 23.852 126.529 24.7901ZM133.679 24.7901C133.679 26.3236 133.235 27.5228 132.347 28.3879C131.459 29.2529 130.222 29.6855 128.637 29.6855C127.645 29.6855 126.769 29.4889 126.011 29.0957C125.252 28.6968 124.669 28.1267 124.262 27.3852C123.855 26.6438 123.651 25.7787 123.651 24.7901C123.651 23.251 124.093 22.0545 124.975 21.2007C125.857 20.3469 127.096 19.92 128.693 19.92C129.686 19.92 130.562 20.1166 131.32 20.5097C132.079 20.903 132.662 21.4675 133.068 22.2033C133.475 22.9392 133.679 23.8014 133.679 24.7901ZM138.739 20.0969V23.8211C138.739 24.2143 138.668 25.1749 138.526 26.7027L143.299 20.0969H146.694V29.5169H143.965V25.759C143.965 25.0906 144.027 24.1469 144.15 22.928L139.395 29.5169H136.01V20.0969H138.739ZM158.22 20.0969V22.0264H154.834V29.5169H152.013V22.0264H148.618V20.0969H158.22ZM164.436 21.7484C163.838 21.7484 163.369 21.9225 163.03 22.2708C162.691 22.6134 162.497 23.1021 162.447 23.7369H166.406C166.394 23.1021 166.212 22.6134 165.86 22.2708C165.509 21.9225 165.034 21.7484 164.436 21.7484ZM164.834 29.6855C163.169 29.6855 161.868 29.267 160.93 28.43C159.993 27.593 159.524 26.4078 159.524 24.8743C159.524 23.2959 159.956 22.077 160.819 21.2175C161.689 20.3525 162.888 19.92 164.418 19.92C165.879 19.92 167.017 20.2991 167.831 21.0574C168.645 21.8158 169.052 22.8634 169.052 24.2003V25.4473H162.383C162.413 26.1775 162.651 26.7477 163.095 27.1577C163.539 27.5678 164.162 27.7728 164.964 27.7728C165.586 27.7728 166.175 27.7138 166.73 27.5958C167.285 27.4779 167.865 27.2897 168.469 27.0314V29.0198C167.976 29.2445 167.449 29.4102 166.887 29.5169C166.326 29.6293 165.642 29.6855 164.834 29.6855ZM180.606 29.5169H177.784V22.0264H175.185C174.988 24.1329 174.747 25.7057 174.463 26.7449C174.18 27.7784 173.8 28.5283 173.326 28.9945C172.857 29.4551 172.24 29.6855 171.475 29.6855C170.822 29.6855 170.285 29.5956 169.866 29.4158V27.3599C170.168 27.4723 170.47 27.5285 170.773 27.5285C171.124 27.5285 171.417 27.2981 171.651 26.8375C171.892 26.3769 172.105 25.6102 172.29 24.5373C172.481 23.4588 172.644 21.9786 172.78 20.0969H180.606V29.5169ZM186.396 23.7369H188.385C189.976 23.7369 191.154 23.9671 191.919 24.4278C192.683 24.8884 193.066 25.5849 193.066 26.5173C193.066 28.5171 191.542 29.5169 188.496 29.5169H183.575V20.0969H186.396V23.7369ZM190.244 26.5511C190.244 26.1859 190.084 25.9219 189.763 25.759C189.442 25.5961 188.965 25.5147 188.33 25.5147H186.396V27.7391H188.366C189.618 27.7391 190.244 27.3431 190.244 26.5511Z" fill="#212D55"/>
<path d="M110.142 38.0975C109.44 38.0975 108.888 38.3241 108.486 38.7773C108.083 39.2305 107.882 39.856 107.882 40.6538C107.882 41.4889 108.075 42.1206 108.46 42.5489C108.849 42.9773 109.409 43.1915 110.142 43.1915C110.459 43.1915 110.765 43.1636 111.062 43.1077C111.359 43.0487 111.667 42.9743 111.987 42.8842V43.8388C111.401 44.0405 110.737 44.1414 109.994 44.1414C108.9 44.1414 108.059 43.8403 107.474 43.2381C106.887 42.6328 106.594 41.7682 106.594 40.6445C106.594 39.9367 106.736 39.3174 107.018 38.7866C107.305 38.2558 107.717 37.8491 108.256 37.5667C108.794 37.2842 109.426 37.1429 110.152 37.1429C110.916 37.1429 111.621 37.2888 112.269 37.5806L111.829 38.5073C111.577 38.3986 111.309 38.3039 111.026 38.2232C110.747 38.1394 110.452 38.0975 110.142 38.0975ZM117.718 38.8984V39.7551H115.877V44.0483H114.671V39.7551H112.831V38.8984H117.718ZM121.675 44.1414C120.959 44.1414 120.403 43.9071 120.008 43.4383H119.937C119.984 43.8729 120.008 44.1368 120.008 44.2299V46.3393H118.807V38.8984H119.778C119.805 38.9946 119.861 39.2243 119.947 39.5875H120.008C120.383 39.066 120.945 38.8052 121.695 38.8052C122.4 38.8052 122.949 39.0381 123.341 39.5037C123.736 39.9693 123.934 40.6228 123.934 41.464C123.934 42.3053 123.733 42.9618 123.331 43.4337C122.932 43.9055 122.38 44.1414 121.675 44.1414ZM121.383 39.6993C120.906 39.6993 120.557 39.8265 120.335 40.0811C120.117 40.3356 120.008 40.7423 120.008 41.3011V41.464C120.008 42.0911 120.117 42.5459 120.335 42.8284C120.553 43.1077 120.909 43.2474 121.404 43.2474C121.82 43.2474 122.14 43.0922 122.365 42.7818C122.589 42.4713 122.702 42.029 122.702 41.4547C122.702 40.8773 122.589 40.4412 122.365 40.1463C122.143 39.8483 121.816 39.6993 121.383 39.6993ZM130.345 41.464C130.345 42.3053 130.108 42.9618 129.634 43.4337C129.16 43.9055 128.501 44.1414 127.656 44.1414C127.128 44.1414 126.66 44.0328 126.255 43.8155C125.849 43.5982 125.538 43.2862 125.319 42.8796C125.101 42.4729 124.992 42.0011 124.992 41.464C124.992 40.629 125.228 39.9771 125.698 39.5083C126.168 39.0396 126.831 38.8052 127.686 38.8052C128.504 38.8052 129.152 39.0458 129.629 39.527C130.106 40.005 130.345 40.6507 130.345 41.464ZM126.229 41.464C126.229 42.6529 126.712 43.2474 127.676 43.2474C128.63 43.2474 129.107 42.6529 129.107 41.464C129.107 40.2875 128.627 39.6993 127.666 39.6993C127.161 39.6993 126.795 39.8514 126.567 40.1556C126.342 40.4598 126.229 40.8959 126.229 41.464ZM132.88 38.8984V41.5385C132.88 41.8458 132.853 42.2975 132.798 42.8935L135.635 38.8984H137.102V44.0483H135.947V41.4547C135.947 41.3119 135.956 41.0806 135.973 40.7609C135.993 40.4412 136.01 40.2083 136.024 40.0625L133.197 44.0483H131.73V38.8984H132.88ZM142.061 43.0006L142.128 42.7771C142.267 42.3146 142.388 41.9591 142.491 41.7108L143.758 38.8984H145.358V44.0483H144.249V39.8902L144.157 40.1696C144.004 40.6694 143.874 41.0372 143.768 41.2731L142.531 44.0483H141.622L140.384 41.2545C140.214 40.8509 140.057 40.3962 139.914 39.8902V44.0483H138.815V38.8984H140.405L141.632 41.627C141.741 41.8785 141.884 42.3363 142.061 43.0006ZM154.703 40.2161C154.703 40.8246 154.313 41.1924 153.532 41.3197V41.3569C153.968 41.4035 154.302 41.5292 154.534 41.7341C154.766 41.939 154.882 42.2044 154.882 42.5303C154.882 43.0177 154.677 43.3933 154.269 43.6572C153.863 43.9179 153.271 44.0483 152.495 44.0483H149.796V38.8984H152.484C153.963 38.8984 154.703 39.3376 154.703 40.2161ZM153.65 42.4652C153.65 42.2168 153.544 42.0414 153.333 41.939C153.122 41.8335 152.805 41.7806 152.382 41.7806H150.997V43.2381H152.413C153.238 43.2381 153.65 42.9804 153.65 42.4652ZM153.502 40.3092C153.502 40.1043 153.413 39.9569 153.236 39.8669C153.062 39.7738 152.801 39.7272 152.454 39.7272H150.997V40.9658H152.275C152.677 40.9658 152.982 40.9192 153.19 40.8261C153.398 40.7299 153.502 40.5576 153.502 40.3092ZM163.491 44.0483H162.279V39.7551H160.72C160.624 40.8603 160.495 41.7232 160.331 42.3441C160.171 42.9649 159.96 43.4181 159.698 43.7037C159.438 43.9893 159.101 44.1321 158.685 44.1321C158.423 44.1321 158.203 44.098 158.026 44.0297V43.1729C158.152 43.2164 158.278 43.2381 158.404 43.2381C158.752 43.2381 159.024 42.8827 159.222 42.1718C159.423 41.4578 159.58 40.3667 159.692 38.8984H163.491V44.0483ZM172.764 41.464C172.764 42.3084 172.537 42.9665 172.084 43.4383C171.634 43.9071 171.005 44.1414 170.197 44.1414C169.455 44.1414 168.863 43.9428 168.424 43.5454C167.987 43.145 167.734 42.5722 167.662 41.8272H166.415V44.0483H165.214V38.8984H166.415V40.9658H167.672C167.758 40.2829 168.02 39.7521 168.46 39.3733C168.902 38.9946 169.488 38.8052 170.218 38.8052C171.002 38.8052 171.622 39.0458 172.079 39.527C172.536 40.005 172.764 40.6507 172.764 41.464ZM168.889 41.464C168.889 42.0507 168.991 42.4946 169.195 42.7957C169.403 43.0969 169.741 43.2474 170.208 43.2474C170.671 43.2474 171.007 43.0969 171.215 42.7957C171.423 42.4946 171.527 42.0507 171.527 41.464C171.527 40.8835 171.423 40.4443 171.215 40.1463C171.007 39.8483 170.671 39.6993 170.208 39.6993C169.741 39.6993 169.403 39.8483 169.195 40.1463C168.991 40.4443 168.889 40.8835 168.889 41.464ZM173.832 40.9565C173.832 39.8079 174.045 38.9248 174.471 38.307C174.901 37.6893 175.582 37.2919 176.516 37.115C177.221 36.9846 178.034 36.8574 178.954 36.7332L179.123 37.697C178.005 37.8523 177.187 37.9733 176.669 38.0602C176.134 38.1502 175.747 38.3505 175.509 38.6609C175.274 38.9713 175.137 39.4385 175.1 40.0625H175.176C175.371 39.8048 175.625 39.6062 175.938 39.4665C176.252 39.3237 176.587 39.2523 176.945 39.2523C177.641 39.2523 178.183 39.4525 178.571 39.8529C178.959 40.2534 179.154 40.8153 179.154 41.5385C179.154 42.3673 178.917 43.0084 178.443 43.4616C177.973 43.9148 177.32 44.1414 176.485 44.1414C175.657 44.1414 175.008 43.862 174.538 43.3033C174.067 42.7445 173.832 41.9622 173.832 40.9565ZM176.567 43.2474C177.46 43.2474 177.906 42.7135 177.906 41.6456C177.906 40.615 177.503 40.0997 176.695 40.0997C176.473 40.0997 176.259 40.1432 176.051 40.2301C175.843 40.317 175.65 40.4319 175.473 40.5747C175.299 40.7174 175.164 40.8649 175.069 41.017C175.069 41.7496 175.197 42.3053 175.453 42.684C175.708 43.0596 176.08 43.2474 176.567 43.2474ZM181.74 40.9565H182.885C183.676 40.9565 184.261 41.0806 184.639 41.329C185.017 41.5773 185.206 41.9498 185.206 42.4465C185.206 42.9773 185.009 43.3778 184.613 43.6479C184.221 43.9148 183.646 44.0483 182.885 44.0483H180.539V38.8984H181.74V40.9565ZM184.015 42.4745C184.015 42.2168 183.91 42.0368 183.698 41.9343C183.49 41.8319 183.19 41.7806 182.799 41.7806H181.74V43.2381H182.645C183.129 43.2381 183.479 43.176 183.693 43.0519C183.908 42.9277 184.015 42.7352 184.015 42.4745ZM187.302 44.0483H186.096V38.8984H187.302V44.0483ZM190.283 41.4174L188.386 38.8984H189.756L191.044 40.7004L192.343 38.8984H193.703L191.801 41.4174L193.799 44.0483H192.44L191.044 42.1206L189.653 44.0483H188.294L190.283 41.4174ZM119.486 52.0674V54.1349H122.15V52.0674H123.351V57.2174H122.15V54.9964H119.486V57.2174H118.285V52.0674H119.486ZM128.612 57.2174L128.371 56.5004H128.331C128.058 56.8137 127.783 57.028 127.507 57.1429C127.231 57.2546 126.877 57.3105 126.444 57.3105C125.889 57.3105 125.454 57.1738 125.14 56.9009C124.83 56.6275 124.675 56.2411 124.675 55.7415C124.675 55.2107 124.892 54.8102 125.324 54.54C125.757 54.2698 126.417 54.1227 127.303 54.0977L128.279 54.0695V53.7948C128.279 53.466 128.194 53.2208 128.023 53.0591C127.856 52.8948 127.596 52.8126 127.242 52.8126C126.952 52.8126 126.674 52.8512 126.408 52.9288C126.142 53.0065 125.887 53.0982 125.641 53.2035L125.253 52.4211C125.56 52.2754 125.895 52.1655 126.26 52.0905C126.625 52.0133 126.969 51.9743 127.293 51.9743C128.011 51.9743 128.553 52.1173 128.918 52.4025C129.286 52.6881 129.47 53.1368 129.47 53.7485V57.2174H128.612ZM126.822 56.4722C127.259 56.4722 127.608 56.3623 127.87 56.1416C128.136 55.9182 128.269 55.6062 128.269 55.2057V54.7589L127.543 54.7866C126.977 54.8052 126.565 54.8924 126.306 55.0477C126.05 55.1998 125.923 55.4341 125.923 55.7506C125.923 55.9804 125.997 56.1589 126.147 56.286C126.297 56.4104 126.522 56.4722 126.822 56.4722ZM136.09 52.0674V57.2174H134.884V52.9334H132.348V57.2174H131.147V52.0674H136.09ZM140.681 57.3105C139.965 57.3105 139.41 57.0762 139.014 56.6075H138.943C138.99 57.0421 139.014 57.3059 139.014 57.399V59.5084H137.813V52.0674H138.784C138.812 52.1636 138.868 52.3934 138.953 52.7567H139.014C139.389 52.2349 139.951 51.9743 140.701 51.9743C141.407 51.9743 141.956 52.2072 142.347 52.6727C142.743 53.1386 142.94 53.7921 142.94 54.6331C142.94 55.4745 142.739 56.1307 142.337 56.6025C141.939 57.0748 141.386 57.3105 140.681 57.3105ZM140.39 52.8684C139.913 52.8684 139.563 52.9956 139.342 53.2503C139.123 53.5046 139.014 53.9115 139.014 54.47V54.6331C139.014 55.2602 139.123 55.7148 139.342 55.9972C139.56 56.2769 139.916 56.4163 140.41 56.4163C140.826 56.4163 141.146 56.2615 141.371 55.9509C141.596 55.6403 141.708 55.198 141.708 54.624C141.708 54.0464 141.596 53.6104 141.371 53.3153C141.149 53.0174 140.822 52.8684 140.39 52.8684ZM147.873 57.2174L147.633 56.5004H147.592C147.319 56.8137 147.045 57.028 146.769 57.1429C146.493 57.2546 146.139 57.3105 145.706 57.3105C145.15 57.3105 144.716 57.1738 144.402 56.9009C144.092 56.6275 143.937 56.2411 143.937 55.7415C143.937 55.2107 144.154 54.8102 144.586 54.54C145.019 54.2698 145.679 54.1227 146.565 54.0977L147.541 54.0695V53.7948C147.541 53.466 147.456 53.2208 147.286 53.0591C147.119 52.8948 146.858 52.8126 146.503 52.8126C146.214 52.8126 145.936 52.8512 145.67 52.9288C145.405 53.0065 145.149 53.0982 144.903 53.2035L144.515 52.4211C144.822 52.2754 145.157 52.1655 145.522 52.0905C145.887 52.0133 146.231 51.9743 146.555 51.9743C147.274 51.9743 147.815 52.1173 148.18 52.4025C148.548 52.6881 148.732 53.1368 148.732 53.7485V57.2174H147.873ZM146.084 56.4722C146.52 56.4722 146.87 56.3623 147.132 56.1416C147.398 55.9182 147.531 55.6062 147.531 55.2057V54.7589L146.805 54.7866C146.239 54.8052 145.827 54.8924 145.568 55.0477C145.312 55.1998 145.185 55.4341 145.185 55.7506C145.185 55.9804 145.259 56.1589 145.41 56.286C145.56 56.4104 145.784 56.4722 146.084 56.4722ZM155.316 53.3852C155.316 53.9937 154.926 54.3615 154.146 54.4887V54.5259C154.582 54.5727 154.916 54.6985 155.148 54.9033C155.379 55.1081 155.495 55.3733 155.495 55.6993C155.495 56.1866 155.291 56.5626 154.882 56.8264C154.476 57.0871 153.885 57.2174 153.108 57.2174H150.409V52.0674H153.098C154.577 52.0674 155.316 52.5065 155.316 53.3852ZM154.264 55.6344C154.264 55.386 154.158 55.2107 153.947 55.1081C153.735 55.0027 153.418 54.9496 152.996 54.9496H151.61V56.4073H153.026C153.851 56.4073 154.264 56.1493 154.264 55.6344ZM154.115 53.4783C154.115 53.2735 154.027 53.1259 153.849 53.036C153.675 52.9429 153.415 52.8961 153.067 52.8961H151.61V54.1349H152.888C153.29 54.1349 153.596 54.0881 153.803 53.9951C154.011 53.8988 154.115 53.7267 154.115 53.4783ZM161.384 57.2174H160.173V52.9243H158.614C158.518 54.0291 158.389 54.8924 158.225 55.5131C158.065 56.1339 157.854 56.5871 157.591 56.8727C157.332 57.1584 156.995 57.3014 156.579 57.3014C156.317 57.3014 156.097 57.2669 155.92 57.1988V56.3419C156.046 56.3855 156.172 56.4073 156.298 56.4073C156.646 56.4073 156.918 56.0517 157.116 55.341C157.317 54.6267 157.474 53.5359 157.586 52.0674H161.384V57.2174ZM165.576 57.3105C164.697 57.3105 164.009 57.0775 163.511 56.6121C163.017 56.1434 162.77 55.4991 162.77 54.6798C162.77 53.8384 163 53.1772 163.46 52.6959C163.92 52.215 164.552 51.9743 165.357 51.9743C166.103 51.9743 166.692 52.1809 167.125 52.5937C167.558 53.0065 167.775 53.5745 167.775 54.2979V54.8892H164.007C164.024 55.3892 164.172 55.7738 164.452 56.044C164.731 56.311 165.125 56.4445 165.632 56.4445C165.966 56.4445 166.276 56.4163 166.563 56.3605C166.853 56.3015 167.163 56.2052 167.493 56.0721V56.9613C167.2 57.0884 166.904 57.1788 166.604 57.2315C166.304 57.2841 165.961 57.3105 165.576 57.3105ZM165.357 52.803C164.975 52.803 164.668 52.9134 164.436 53.1336C164.208 53.3543 164.072 53.6754 164.027 54.0977H166.593C166.586 53.6722 166.474 53.3511 166.256 53.1336C166.038 52.9134 165.738 52.803 165.357 52.803ZM170.341 52.0674V54.1349H173.004V52.0674H174.205V57.2174H173.004V54.9964H170.341V57.2174H169.14V52.0674H170.341ZM177.078 52.0674V54.7075C177.078 55.015 177.051 55.4668 176.997 56.0626L179.834 52.0674H181.301V57.2174H180.145V54.624C180.145 54.4809 180.154 54.2498 180.171 53.9301C180.192 53.6104 180.209 53.3775 180.222 53.2317L177.395 57.2174H175.928V52.0674H177.078ZM183.591 57.2174H182.247L183.821 55.1081C183.439 55.0086 183.14 54.832 182.921 54.5772C182.703 54.3197 182.594 54.0014 182.594 53.6227C182.594 53.1354 182.785 52.7549 183.166 52.482C183.548 52.2054 184.07 52.0674 184.731 52.0674H187.307V57.2174H186.101V55.2339H184.961L183.591 57.2174ZM183.765 53.6318C183.765 53.8961 183.874 54.0945 184.092 54.228C184.314 54.3583 184.61 54.4237 184.981 54.4237H186.101V52.8961H184.792C184.465 52.8961 184.211 52.9601 184.03 53.0873C183.853 53.2144 183.765 53.3961 183.765 53.6318ZM190.283 54.5868L188.386 52.0674H189.756L191.044 53.8693L192.343 52.0674H193.703L191.801 54.5868L193.799 57.2174H192.44L191.044 55.2897L189.653 57.2174H188.294L190.283 54.5868Z" fill="#212D55"/>
</g>
<defs>
<linearGradient id="paint0_linear_1_353" x1="76.6491" y1="25.5436" x2="33.9223" y2="72.4511" gradientUnits="userSpaceOnUse">
<stop stop-color="#212D55"/>
<stop offset="0.491587" stop-color="#212D55" stop-opacity="0.38"/>
<stop offset="1" stop-color="#212D55"/>
</linearGradient>
<clipPath id="clip0_1_353">
<rect width="193.932" height="94" fill="white"/>
</clipPath>
</defs>
</svg>
